<?xml version="1.0" encoding="UTF-8" standalone="no"?>
<svg
   xmlns:dc="http://purl.org/dc/elements/1.1/"
   xmlns:cc="http://creativecommons.org/ns#"
   xmlns:rdf="http://www.w3.org/1999/02/22-rdf-syntax-ns#"
   xmlns:svg="http://www.w3.org/2000/svg"
   xmlns="http://www.w3.org/2000/svg"
   xmlns:xlink="http://www.w3.org/1999/xlink"
   xmlns:sodipodi="http://sodipodi.sourceforge.net/DTD/sodipodi-0.dtd"
   xmlns:inkscape="http://www.inkscape.org/namespaces/inkscape"
   width="310.58691"
   height="156.60028"
   viewBox="0 0 310.58691 156.60028"
   version="1.1"
   id="svg8"
   inkscape:version="1.0.2 (1.0.2+r75+1)"
   sodipodi:docname="sensitivities.svg">
  <defs
     id="defs2">
    <g
       id="g9477">
      <symbol
         overflow="visible"
         id="symbol2440">
        <path
           style="stroke:none"
           d=""
           id="path8256" />
      </symbol>
      <symbol
         overflow="visible"
         id="symbol7372">
        <path
           style="stroke:none"
           d="m 3.84375,-5.578125 c 0.265625,1.296875 0.703125,3.4375 1.265625,4.59375 0.21875,0.421875 0.328125,0.640625 0.4375,0.640625 0.03125,0 0.0625,0 0.234375,-0.171875 C 6.546875,-1.25 7.0625,-1.828125 7.75,-2.625 l 2.1875,-2.53125 c -0.140625,0.84375 -0.5,3.078125 -0.5,4.25 0,0.265625 0.015625,0.53125 0.046875,0.796875 0,0.109375 0.046875,0.40625 0.46875,0.40625 0.421875,0 1.171875,-0.453125 1.171875,-0.640625 0,-0.0625 -0.0625,-0.078125 -0.09375,-0.078125 -0.125,0 -0.328125,0.09375 -0.4375,0.15625 -0.234375,-0.03125 -0.25,-0.1875 -0.28125,-0.40625 -0.03125,-0.328125 -0.03125,-0.625 -0.03125,-0.65625 0,-1.109375 0.4375,-4.140625 0.734375,-5.375 0.01563,-0.0625 0.01563,-0.078125 0.01563,-0.171875 0,-0.03125 0,-0.140625 -0.07813,-0.140625 -0.03125,0 -0.04687,0 -0.234375,0.234375 -0.9375,1.125 -3.84375,4.625 -4.84375,5.453125 C 5.625,-1.859375 5.453125,-2.234375 5.109375,-3.625 4.8125,-4.75 4.640625,-5.578125 4.46875,-6.546875 4.453125,-6.6875 4.390625,-6.953125 4.390625,-6.984375 4.359375,-7.03125 4.3125,-7.03125 4.28125,-7.03125 c -0.171875,0 -0.59375,0.21875 -0.625,0.4375 -0.125,0.828125 -0.3125,2.140625 -1.015625,4.046875 -0.796875,2.125 -1.015625,2.125 -1.203125,2.125 -0.125,0 -0.5,-0.078125 -0.71875,-0.28125 C 0.671875,-0.75 0.640625,-0.75 0.625,-0.75 c -0.140625,0 -0.359375,0.453125 -0.359375,0.734375 0,0.078125 0,0.203125 0.328125,0.375 C 0.84375,0.484375 1.078125,0.5 1.125,0.5 1.75,0.5 2.328125,-0.921875 2.53125,-1.4375 3,-2.5625 3.5625,-4.140625 3.84375,-5.578125 Z m 0,0"
           id="path9671" />
      </symbol>
    </g>
    <g
       id="g648">
      <symbol
         overflow="visible"
         id="symbol9213">
        <path
           style="stroke:none"
           d=""
           id="path5871" />
      </symbol>
      <symbol
         overflow="visible"
         id="symbol6589">
        <path
           style="stroke:none"
           d="M 2.796875,-6.765625 C 2.8125,-6.875 2.8125,-6.890625 2.8125,-6.921875 2.8125,-7 2.796875,-7.03125 2.703125,-7.03125 c -0.109375,0 -0.40625,0.15625 -0.609375,0.25 C 1.640625,-6.546875 1.25,-6.359375 1.25,-6.1875 c 0,0.0625 0.078125,0.0625 0.109375,0.0625 0.125,0 0.390625,-0.140625 0.578125,-0.21875 -0.125,0.96875 -0.359375,2.25 -0.546875,3.109375 C 1.03125,-1.546875 0.84375,-0.9375 0.34375,0.03125 0.296875,0.125 0.296875,0.140625 0.296875,0.15625 c 0,0.0625 0.078125,0.0625 0.109375,0.0625 0.15625,0 0.578125,-0.171875 0.734375,-0.453125 0.125,-0.234375 0.5,-0.96875 0.796875,-2.125 0.21875,-0.84375 0.609375,-2.15625 1.3125,-3.1875 0.453125,-0.640625 0.875,-0.9375 1.5,-0.9375 0.546875,0 1.03125,0.34375 1.03125,0.875 0,0.875 -0.953125,1.1875 -1.984375,1.546875 -0.125,0.03125 -0.8125,0.28125 -0.8125,0.53125 0,0.046875 0.078125,0.0625 0.109375,0.0625 0.03125,0 0.265625,-0.046875 0.46875,-0.046875 1.015625,0 1.828125,0.609375 1.828125,1.546875 0,1.234375 -1.046875,1.640625 -1.96875,1.640625 -0.765625,0 -1.125,-0.421875 -1.265625,-0.5625 -0.03125,-0.046875 -0.046875,-0.0625 -0.125,-0.0625 -0.21875,0 -0.71875,0.3125 -0.71875,0.484375 0,0.03125 0.375,0.6875 1.453125,0.6875 1.40625,0 3.46875,-1 3.46875,-2.59375 0,-0.84375 -0.546875,-1.46875 -1.5625,-1.65625 0.796875,-0.34375 1.953125,-1.0625 1.953125,-2 0,-0.578125 -0.46875,-1 -1.21875,-1 -0.328125,0 -1.609375,0.078125 -2.8125,1.578125 z m 0,0"
           id="path7692" />
      </symbol>
      <symbol
         overflow="visible"
         id="symbol9288">
        <path
           style="stroke:none"
           d=""
           id="path1839" />
      </symbol>
      <symbol
         overflow="visible"
         id="symbol3429">
        <path
           style="stroke:none"
           d="m 2.265625,-4.359375 c 0,-0.109375 -0.09375,-0.265625 -0.28125,-0.265625 -0.1875,0 -0.390625,0.1875 -0.390625,0.390625 0,0.109375 0.078125,0.265625 0.28125,0.265625 0.1875,0 0.390625,-0.203125 0.390625,-0.390625 z M 0.84375,-0.8125 c -0.03125,0.09375 -0.0625,0.171875 -0.0625,0.296875 0,0.328125 0.265625,0.578125 0.65625,0.578125 0.6875,0 1,-0.953125 1,-1.0625 0,-0.09375 -0.09375,-0.09375 -0.109375,-0.09375 -0.09375,0 -0.109375,0.046875 -0.140625,0.125 -0.15625,0.5625 -0.453125,0.84375 -0.734375,0.84375 -0.140625,0 -0.171875,-0.09375 -0.171875,-0.25 0,-0.15625 0.046875,-0.28125 0.109375,-0.4375 C 1.46875,-1 1.546875,-1.1875 1.609375,-1.375 1.671875,-1.546875 1.9375,-2.171875 1.953125,-2.265625 1.984375,-2.328125 2,-2.40625 2,-2.484375 2,-2.8125 1.71875,-3.078125 1.34375,-3.078125 0.640625,-3.078125 0.328125,-2.125 0.328125,-2 c 0,0.078125 0.09375,0.078125 0.125,0.078125 0.09375,0 0.09375,-0.03125 0.125,-0.109375 C 0.75,-2.625 1.0625,-2.875 1.3125,-2.875 c 0.109375,0 0.171875,0.046875 0.171875,0.234375 0,0.171875 -0.03125,0.265625 -0.203125,0.703125 z m 0,0"
           id="path5284" />
      </symbol>
    </g>
    <g
       id="g7725">
      <symbol
         overflow="visible"
         id="symbol3995">
        <path
           style="stroke:none"
           d=""
           id="path5777" />
      </symbol>
      <symbol
         overflow="visible"
         id="symbol1798">
        <path
           style="stroke:none"
           d="M 2.796875,-6.765625 C 2.8125,-6.875 2.8125,-6.890625 2.8125,-6.921875 2.8125,-7 2.796875,-7.03125 2.703125,-7.03125 c -0.109375,0 -0.40625,0.15625 -0.609375,0.25 C 1.640625,-6.546875 1.25,-6.359375 1.25,-6.1875 c 0,0.0625 0.078125,0.0625 0.109375,0.0625 0.125,0 0.390625,-0.140625 0.578125,-0.21875 -0.125,0.96875 -0.359375,2.25 -0.546875,3.109375 C 1.03125,-1.546875 0.84375,-0.9375 0.34375,0.03125 0.296875,0.125 0.296875,0.140625 0.296875,0.15625 c 0,0.0625 0.078125,0.0625 0.109375,0.0625 0.15625,0 0.578125,-0.171875 0.734375,-0.453125 0.125,-0.234375 0.5,-0.96875 0.796875,-2.125 0.21875,-0.84375 0.609375,-2.15625 1.3125,-3.1875 0.453125,-0.640625 0.875,-0.9375 1.5,-0.9375 0.546875,0 1.03125,0.34375 1.03125,0.875 0,0.875 -0.953125,1.1875 -1.984375,1.546875 -0.125,0.03125 -0.8125,0.28125 -0.8125,0.53125 0,0.046875 0.078125,0.0625 0.109375,0.0625 0.03125,0 0.265625,-0.046875 0.46875,-0.046875 1.015625,0 1.828125,0.609375 1.828125,1.546875 0,1.234375 -1.046875,1.640625 -1.96875,1.640625 -0.765625,0 -1.125,-0.421875 -1.265625,-0.5625 -0.03125,-0.046875 -0.046875,-0.0625 -0.125,-0.0625 -0.21875,0 -0.71875,0.3125 -0.71875,0.484375 0,0.03125 0.375,0.6875 1.453125,0.6875 1.40625,0 3.46875,-1 3.46875,-2.59375 0,-0.84375 -0.546875,-1.46875 -1.5625,-1.65625 0.796875,-0.34375 1.953125,-1.0625 1.953125,-2 0,-0.578125 -0.46875,-1 -1.21875,-1 -0.328125,0 -1.609375,0.078125 -2.8125,1.578125 z m 0,0"
           id="path2966" />
      </symbol>
      <symbol
         overflow="visible"
         id="symbol2019">
        <path
           style="stroke:none"
           d=""
           id="path5661" />
      </symbol>
      <symbol
         overflow="visible"
         id="symbol3328">
        <path
           style="stroke:none"
           d="m 2.265625,-4.359375 c 0,-0.109375 -0.09375,-0.265625 -0.28125,-0.265625 -0.1875,0 -0.390625,0.1875 -0.390625,0.390625 0,0.109375 0.078125,0.265625 0.28125,0.265625 0.1875,0 0.390625,-0.203125 0.390625,-0.390625 z M 0.84375,-0.8125 c -0.03125,0.09375 -0.0625,0.171875 -0.0625,0.296875 0,0.328125 0.265625,0.578125 0.65625,0.578125 0.6875,0 1,-0.953125 1,-1.0625 0,-0.09375 -0.09375,-0.09375 -0.109375,-0.09375 -0.09375,0 -0.109375,0.046875 -0.140625,0.125 -0.15625,0.5625 -0.453125,0.84375 -0.734375,0.84375 -0.140625,0 -0.171875,-0.09375 -0.171875,-0.25 0,-0.15625 0.046875,-0.28125 0.109375,-0.4375 C 1.46875,-1 1.546875,-1.1875 1.609375,-1.375 1.671875,-1.546875 1.9375,-2.171875 1.953125,-2.265625 1.984375,-2.328125 2,-2.40625 2,-2.484375 2,-2.8125 1.71875,-3.078125 1.34375,-3.078125 0.640625,-3.078125 0.328125,-2.125 0.328125,-2 c 0,0.078125 0.09375,0.078125 0.125,0.078125 0.09375,0 0.09375,-0.03125 0.125,-0.109375 C 0.75,-2.625 1.0625,-2.875 1.3125,-2.875 c 0.109375,0 0.171875,0.046875 0.171875,0.234375 0,0.171875 -0.03125,0.265625 -0.203125,0.703125 z m 0,0"
           id="path6758" />
      </symbol>
      <symbol
         overflow="visible"
         id="symbol8803">
        <path
           style="stroke:none"
           d=""
           id="path1624" />
      </symbol>
      <symbol
         overflow="visible"
         id="symbol3804">
        <path
           style="stroke:none"
           d="m 3.21875,-1.578125 h 2.140625 c 0.09375,0 0.25,0 0.25,-0.15625 0,-0.1875 -0.15625,-0.1875 -0.25,-0.1875 H 3.21875 V -4.0625 c 0,-0.078125 0,-0.25 -0.15625,-0.25 -0.171875,0 -0.171875,0.15625 -0.171875,0.25 v 2.140625 H 0.75 c -0.09375,0 -0.265625,0 -0.265625,0.171875 0,0.171875 0.15625,0.171875 0.265625,0.171875 H 2.890625 V 0.5625 c 0,0.09375 0,0.265625 0.15625,0.265625 0.171875,0 0.171875,-0.171875 0.171875,-0.265625 z m 0,0"
           id="path9026" />
      </symbol>
      <symbol
         overflow="visible"
         id="symbol1849">
        <path
           style="stroke:none"
           d="m 2.328125,-4.4375 c 0,-0.1875 0,-0.1875 -0.203125,-0.1875 -0.453125,0.4375 -1.078125,0.4375 -1.359375,0.4375 v 0.25 c 0.15625,0 0.625,0 1,-0.1875 v 3.546875 c 0,0.234375 0,0.328125 -0.6875,0.328125 H 0.8125 V 0 c 0.125,0 0.984375,-0.03125 1.234375,-0.03125 0.21875,0 1.09375,0.03125 1.25,0.03125 V -0.25 H 3.03125 c -0.703125,0 -0.703125,-0.09375 -0.703125,-0.328125 z m 0,0"
           id="path7680" />
      </symbol>
    </g>
  </defs>
  <sodipodi:namedview
     id="base"
     pagecolor="#ffffff"
     bordercolor="#666666"
     borderopacity="1.0"
     inkscape:pageopacity="0.0"
     inkscape:pageshadow="2"
     inkscape:zoom="2"
     inkscape:cx="107.92489"
     inkscape:cy="77.06259"
     inkscape:document-units="px"
     inkscape:current-layer="layer1"
     showgrid="false"
     units="px"
     inkscape:window-width="1918"
     inkscape:window-height="1051"
     inkscape:window-x="3826"
     inkscape:window-y="1093"
     inkscape:window-maximized="1"
     inkscape:document-rotation="0" />
  <metadata
     id="metadata5">
    <rdf:RDF>
      <cc:Work
         rdf:about="">
        <dc:format>image/svg+xml</dc:format>
        <dc:type
           rdf:resource="http://purl.org/dc/dcmitype/StillImage" />
        <dc:title></dc:title>
      </cc:Work>
    </rdf:RDF>
  </metadata>
  <g
     inkscape:label="Layer 1"
     inkscape:groupmode="layer"
     id="layer1"
     transform="translate(-1.12524,-38.3231)">
    <path
       id="path834"
       style="fill:#ff0000;fill-opacity:0.5;stroke:#000000;stroke-width:3;stroke-linecap:round;stop-color:#000000"
       d="M 81.518139,80.737472 C 73.1302,83.49193 65.870051,89.075211 60.32055,95.887483 c -3.107366,3.640296 -6.214731,7.280597 -9.322097,10.920887 -6.40873,4.37164 -13.922951,6.57282 -21.166703,9.10235 -1.451187,0.4827 -2.902374,0.96541 -4.353559,1.44813 -6.855774,4.65268 -11.721553,12.26931 -12.752311,20.54189 -0.273225,2.34112 -0.506123,4.68738 -0.764126,7.03045 1.12884,4.11311 3.273152,7.83315 5.413676,11.48411 3.492512,4.29579 7.454003,8.17041 11.359962,12.08042 3.77141,2.0094 8.197308,2.05515 12.34885,1.68788 6.149701,-0.71274 12.203328,-2.71523 18.452528,-2.20815 5.564871,0.58618 10.557035,3.37046 15.26499,6.22013 4.099843,2.56826 8.332338,5.13845 13.104504,6.205 4.214291,1.0408 8.572393,1.35758 12.899386,1.4416 5.8895,0.0494 11.74436,-0.9583 17.40565,-2.53944 4.86461,-1.16662 9.87892,-2.60884 14.9198,-1.78518 4.88071,0.65413 9.71073,2.11725 14.67913,1.78045 4.39565,-0.63717 8.07764,-3.32476 11.73397,-5.65416 5.83621,-3.89437 11.67132,-8.07318 18.46102,-10.1216 13.74223,-4.57679 27.48447,-9.15359 41.2267,-13.73039 3.37118,-1.65945 5.3929,-5.46978 5.27639,-9.18444 0.17596,-4.13927 0.35192,-8.27852 0.52788,-12.41778 -0.90645,-2.85442 -3.61453,-4.64862 -6.3061,-5.59238 -4.42184,-1.45552 -8.84367,-2.91103 -13.26551,-4.36654 -5.28329,-3.64758 -9.01978,-9.10078 -11.78842,-14.81959 -2.10203,-4.265174 -4.20406,-8.530342 -6.3061,-12.795511 -2.07441,-2.297299 -4.14881,-4.594597 -6.22323,-6.891896 -2.09166,-0.954539 -4.4115,-1.170482 -6.67774,-1.306634 -14.23919,4.007975 -28.40291,8.27813 -42.56849,12.53893 -9.43264,1.013876 -18.98607,-0.927948 -27.72086,-4.481731 -6.619353,-2.632897 -12.996884,-5.826548 -19.528447,-8.664077 -1.00329,-0.41826 -2.010132,-1.119599 -3.133154,-1.072739 z" />
    <path
       id="path857"
       style="fill:#0000ff;fill-opacity:0.5;stroke:#000000;stroke-width:3;stroke-linecap:round;stroke-miterlimit:4;stroke-dasharray:none;stop-color:#000000"
       d="m 187.54492,67.554688 c -3.04728,0.0371 -6.08181,0.345924 -9.11914,0.566406 -3.40304,2.298938 -6.8852,4.89722 -11.07617,5.439453 -5.22234,0.861943 -10.62533,0.807584 -15.68555,2.511719 -5.42218,5.081013 -10.4109,10.595394 -15.64453,15.865234 -3.42994,1.880459 -7.24698,2.869593 -10.9731,3.978291 -7.58838,2.12565 -15.31408,3.70982 -22.93711,5.701909 -2.127391,0.55446 -4.310148,0.98109 -6.352423,1.80238 -2.262517,1.25876 -3.873095,3.48632 -4.663147,5.92367 0.848307,4.06445 1.696615,8.12891 2.544922,12.19336 -0.729167,5.8724 -1.458333,11.74479 -2.1875,17.61719 1.32973,3.25236 4.367476,5.39613 7.423638,6.88039 4.85551,2.01394 10.20035,2.07634 15.27386,3.20908 0.9498,0.10829 2.22912,0.0554 2.68918,1.09375 3.67124,5.44479 7.34247,10.88957 11.01371,16.33436 7.6596,5.56411 18.21823,6.67298 26.94532,3.08593 8.52148,-2.80013 17.04296,-5.60026 25.56445,-8.40039 6.32542,0.10746 12.35366,2.51068 17.80469,5.56446 7.53229,3.82152 15.08406,7.98492 23.46445,9.6032 6.18487,1.13786 12.50505,0.76377 18.74844,0.47883 4.85786,-2.13635 8.36361,-6.77074 9.56841,-11.88669 0.6992,-2.14324 1.3984,-4.28648 2.0976,-6.42972 6.12085,-1.78496 12.49473,-2.35791 18.75781,-3.43359 1.24089,-0.5625 2.48178,-1.125 3.72266,-1.6875 4.78362,-6.18487 9.44523,-12.53719 15.20117,-17.87305 2.2513,-2.49236 4.41107,-5.41134 4.68946,-8.87305 -0.0942,-5.41439 -2.56089,-10.55776 -6.0625,-14.59961 -2.75202,-3.81062 -5.83207,-7.62157 -6.94922,-12.291012 -0.65093,-4.671959 0.90288,-9.231423 1.84765,-13.748047 0.75537,-2.040515 0.14909,-4.691043 -1.83888,-5.796705 -2.53305,-1.815376 -5.71552,-2.20459 -8.66808,-2.923378 -6.17176,-1.25932 -12.50303,-2.151939 -18.30852,-4.72163 -2.58625,-0.979716 -5.17249,-1.959431 -7.75874,-2.939147 -6.35053,0.1197 -12.49431,2.687004 -18.88671,1.966797 -3.85003,-0.50922 -7.83489,-1.652626 -11.67695,-0.478361 -2.79237,0.805207 -5.27075,2.839877 -8.28788,2.732995 -3.36606,-0.359993 -6.14693,-2.482465 -9.22227,-3.699209 -3.46738,-1.581785 -7.19085,-2.921331 -11.059,-2.768315 z" />
    <rect
       style="fill:none;stroke:#000000;stroke-width:3;stroke-linecap:round;stroke-miterlimit:4;stroke-dasharray:none;stop-color:#000000"
       id="rect883"
       width="307.58691"
       height="153.60028"
       x="2.6252441"
       y="39.823105" />
    <path
       id="path885"
       style="fill:none;fill-opacity:0.5;stroke:#000000;stroke-width:3;stroke-linecap:round;stroke-miterlimit:4;stroke-dasharray:6, 6;stroke-dashoffset:0;stop-color:#000000"
       d="m 167.6753,91.643758 c 4.26526,0.47422 8.03028,2.832326 11.39639,5.354104 5.04593,3.702548 9.50346,8.380568 15.34773,10.859668 2.81529,1.01676 5.90559,0.94448 8.84043,0.57906 5.65486,-0.79829 11.07403,-2.67016 16.55641,-4.19976 4.56124,-1.31632 9.12078,-2.64264 13.72465,-3.80357 8.80721,-0.620651 17.47376,5.86586 19.46988,14.45355 2.33437,8.2026 -0.34171,17.6895 -6.85321,23.25521 -6.29409,4.67502 -14.41543,6.39131 -22.13924,5.69296 -9.51118,-0.61265 -18.86232,-2.91756 -28.41875,-2.95536 -5.46696,0.59374 -10.34066,3.42553 -14.83884,6.40935 -2.45456,1.55454 -5.98383,1.97593 -8.34885,0.0283 -3.3614,-4.00062 -4.56676,-9.2314 -5.70176,-14.20455 -1.22128,-5.70724 -2.43694,-11.44413 -4.52537,-16.9106 -1.61378,-4.62482 -3.50797,-9.26822 -3.83847,-14.20559 -0.0692,-4.033987 2.17219,-8.284565 6.0235,-9.823625 1.05339,-0.390059 2.18262,-0.576244 3.3055,-0.529275 z" />
    <text
       xml:space="preserve"
       style="font-size:16px;line-height:0.4;font-family:'DejaVu Sans';-inkscape-font-specification:'DejaVu Sans, Normal';text-align:center;letter-spacing:0px;word-spacing:0px;writing-mode:lr-tb;text-anchor:middle"
       x="71.257339"
       y="58.133057"
       id="text890"><tspan
         sodipodi:role="line"
         id="tspan888"
         x="71.257339"
         y="58.133057"
         style="font-size:16px">Image Statistics</tspan></text>
    <g
       inkscape:label=""
       transform="matrix(1.37016,0,0,1.37016,-101.43262,22.852884)"
       id="g941"
       style="stroke-width:0.729842">
      <g
         id="g4408"
         style="stroke-width:0.729842">
        <g
           style="fill:#000000;fill-opacity:1;stroke-width:0.729842"
           id="g5997">
          <use
             xlink:href="#symbol7372"
             x="91.925003"
             y="81.962997"
             id="use6284"
             width="100%"
             height="100%"
             style="stroke-width:0.729842" />
        </g>
      </g>
    </g>
    <g
       inkscape:label=""
       transform="matrix(1.37016,0,0,1.37016,134.53255,-19.313127)"
       id="g1001"
       style="stroke-width:0.729842">
      <g
         id="g7375"
         style="stroke-width:0.729842">
        <g
           style="fill:#000000;fill-opacity:1;stroke-width:0.729842"
           id="g305">
          <use
             xlink:href="#symbol6589"
             x="91.925003"
             y="81.962997"
             id="use8378"
             width="100%"
             height="100%"
             style="stroke-width:0.729842" />
        </g>
        <g
           style="fill:#000000;fill-opacity:1;stroke-width:0.729842"
           id="g6412">
          <use
             xlink:href="#symbol3429"
             x="98.469002"
             y="83.457001"
             id="use2646"
             width="100%"
             height="100%"
             style="stroke-width:0.729842" />
        </g>
      </g>
    </g>
    <g
       inkscape:label=""
       transform="matrix(1.37016,0,0,1.37016,93.46921,5.9207928)"
       id="g1080"
       style="stroke-width:0.729842">
      <g
         id="g5185"
         style="stroke-width:0.729842">
        <g
           style="fill:#000000;fill-opacity:1;stroke-width:0.729842"
           id="g3670">
          <use
             xlink:href="#symbol1798"
             x="91.925003"
             y="81.962997"
             id="use1314"
             width="100%"
             height="100%"
             style="stroke-width:0.729842" />
        </g>
        <g
           style="fill:#000000;fill-opacity:1;stroke-width:0.729842"
           id="g4674">
          <use
             xlink:href="#symbol3328"
             x="98.469002"
             y="83.457001"
             id="use6532"
             width="100%"
             height="100%"
             style="stroke-width:0.729842" />
        </g>
        <g
           style="fill:#000000;fill-opacity:1;stroke-width:0.729842"
           id="g3792">
          <use
             xlink:href="#symbol3804"
             x="101.288"
             y="83.457001"
             id="use8261"
             width="100%"
             height="100%"
             style="stroke-width:0.729842" />
          <use
             xlink:href="#symbol1849"
             x="107.40402"
             y="83.457001"
             id="use6023"
             width="100%"
             height="100%"
             style="stroke-width:0.729842" />
        </g>
      </g>
    </g>
  </g>
</svg>
