<?xml version="1.0" encoding="UTF-8" standalone="no"?>
<svg
   xmlns:dc="http://purl.org/dc/elements/1.1/"
   xmlns:cc="http://creativecommons.org/ns#"
   xmlns:rdf="http://www.w3.org/1999/02/22-rdf-syntax-ns#"
   xmlns:svg="http://www.w3.org/2000/svg"
   xmlns="http://www.w3.org/2000/svg"
   xmlns:xlink="http://www.w3.org/1999/xlink"
   xmlns:sodipodi="http://sodipodi.sourceforge.net/DTD/sodipodi-0.dtd"
   xmlns:inkscape="http://www.inkscape.org/namespaces/inkscape"
   width="3.2352803in"
   height="1.6312529in"
   viewBox="0 0 310.58691 156.60028"
   version="1.1"
   id="svg8"
   inkscape:version="1.0.2 (1.0.2+r75+1)"
   sodipodi:docname="sensitivities.svg">
  <defs
     id="defs2">
    <g
       id="g9477">
      <symbol
         overflow="visible"
         id="symbol2440">
        <path
           style="stroke:none;"
           d=""
           id="path8256" />
      </symbol>
      <symbol
         overflow="visible"
         id="symbol7372">
        <path
           style="stroke:none;"
           d="M 3.84375 -5.578125 C 4.109375 -4.28125 4.546875 -2.140625 5.109375 -0.984375 C 5.328125 -0.5625 5.4375 -0.34375 5.546875 -0.34375 C 5.578125 -0.34375 5.609375 -0.34375 5.78125 -0.515625 C 6.546875 -1.25 7.0625 -1.828125 7.75 -2.625 L 9.9375 -5.15625 C 9.796875 -4.3125 9.4375 -2.078125 9.4375 -0.90625 C 9.4375 -0.640625 9.453125 -0.375 9.484375 -0.109375 C 9.484375 0 9.53125 0.296875 9.953125 0.296875 C 10.375 0.296875 11.125 -0.15625 11.125 -0.34375 C 11.125 -0.40625 11.0625 -0.421875 11.03125 -0.421875 C 10.90625 -0.421875 10.703125 -0.328125 10.59375 -0.265625 C 10.359375 -0.296875 10.34375 -0.453125 10.3125 -0.671875 C 10.28125 -1 10.28125 -1.296875 10.28125 -1.328125 C 10.28125 -2.4375 10.71875 -5.46875 11.015625 -6.703125 C 11.03125 -6.765625 11.03125 -6.78125 11.03125 -6.875 C 11.03125 -6.90625 11.03125 -7.015625 10.953125 -7.015625 C 10.921875 -7.015625 10.90625 -7.015625 10.71875 -6.78125 C 9.78125 -5.65625 6.875 -2.15625 5.875 -1.328125 C 5.625 -1.859375 5.453125 -2.234375 5.109375 -3.625 C 4.8125 -4.75 4.640625 -5.578125 4.46875 -6.546875 C 4.453125 -6.6875 4.390625 -6.953125 4.390625 -6.984375 C 4.359375 -7.03125 4.3125 -7.03125 4.28125 -7.03125 C 4.109375 -7.03125 3.6875 -6.8125 3.65625 -6.59375 C 3.53125 -5.765625 3.34375 -4.453125 2.640625 -2.546875 C 1.84375 -0.421875 1.625 -0.421875 1.4375 -0.421875 C 1.3125 -0.421875 0.9375 -0.5 0.71875 -0.703125 C 0.671875 -0.75 0.640625 -0.75 0.625 -0.75 C 0.484375 -0.75 0.265625 -0.296875 0.265625 -0.015625 C 0.265625 0.0625 0.265625 0.1875 0.59375 0.359375 C 0.84375 0.484375 1.078125 0.5 1.125 0.5 C 1.75 0.5 2.328125 -0.921875 2.53125 -1.4375 C 3 -2.5625 3.5625 -4.140625 3.84375 -5.578125 Z M 3.84375 -5.578125 "
           id="path9671" />
      </symbol>
    </g>
    <g
       id="g648">
      <symbol
         overflow="visible"
         id="symbol9213">
        <path
           style="stroke:none;"
           d=""
           id="path5871" />
      </symbol>
      <symbol
         overflow="visible"
         id="symbol6589">
        <path
           style="stroke:none;"
           d="M 2.796875 -6.765625 C 2.8125 -6.875 2.8125 -6.890625 2.8125 -6.921875 C 2.8125 -7 2.796875 -7.03125 2.703125 -7.03125 C 2.59375 -7.03125 2.296875 -6.875 2.09375 -6.78125 C 1.640625 -6.546875 1.25 -6.359375 1.25 -6.1875 C 1.25 -6.125 1.328125 -6.125 1.359375 -6.125 C 1.484375 -6.125 1.75 -6.265625 1.9375 -6.34375 C 1.8125 -5.375 1.578125 -4.09375 1.390625 -3.234375 C 1.03125 -1.546875 0.84375 -0.9375 0.34375 0.03125 C 0.296875 0.125 0.296875 0.140625 0.296875 0.15625 C 0.296875 0.21875 0.375 0.21875 0.40625 0.21875 C 0.5625 0.21875 0.984375 0.046875 1.140625 -0.234375 C 1.265625 -0.46875 1.640625 -1.203125 1.9375 -2.359375 C 2.15625 -3.203125 2.546875 -4.515625 3.25 -5.546875 C 3.703125 -6.1875 4.125 -6.484375 4.75 -6.484375 C 5.296875 -6.484375 5.78125 -6.140625 5.78125 -5.609375 C 5.78125 -4.734375 4.828125 -4.421875 3.796875 -4.0625 C 3.671875 -4.03125 2.984375 -3.78125 2.984375 -3.53125 C 2.984375 -3.484375 3.0625 -3.46875 3.09375 -3.46875 C 3.125 -3.46875 3.359375 -3.515625 3.5625 -3.515625 C 4.578125 -3.515625 5.390625 -2.90625 5.390625 -1.96875 C 5.390625 -0.734375 4.34375 -0.328125 3.421875 -0.328125 C 2.65625 -0.328125 2.296875 -0.75 2.15625 -0.890625 C 2.125 -0.9375 2.109375 -0.953125 2.03125 -0.953125 C 1.8125 -0.953125 1.3125 -0.640625 1.3125 -0.46875 C 1.3125 -0.4375 1.6875 0.21875 2.765625 0.21875 C 4.171875 0.21875 6.234375 -0.78125 6.234375 -2.375 C 6.234375 -3.21875 5.6875 -3.84375 4.671875 -4.03125 C 5.46875 -4.375 6.625 -5.09375 6.625 -6.03125 C 6.625 -6.609375 6.15625 -7.03125 5.40625 -7.03125 C 5.078125 -7.03125 3.796875 -6.953125 2.59375 -5.453125 Z M 2.796875 -6.765625 "
           id="path7692" />
      </symbol>
      <symbol
         overflow="visible"
         id="symbol9288">
        <path
           style="stroke:none;"
           d=""
           id="path1839" />
      </symbol>
      <symbol
         overflow="visible"
         id="symbol3429">
        <path
           style="stroke:none;"
           d="M 2.265625 -4.359375 C 2.265625 -4.46875 2.171875 -4.625 1.984375 -4.625 C 1.796875 -4.625 1.59375 -4.4375 1.59375 -4.234375 C 1.59375 -4.125 1.671875 -3.96875 1.875 -3.96875 C 2.0625 -3.96875 2.265625 -4.171875 2.265625 -4.359375 Z M 0.84375 -0.8125 C 0.8125 -0.71875 0.78125 -0.640625 0.78125 -0.515625 C 0.78125 -0.1875 1.046875 0.0625 1.4375 0.0625 C 2.125 0.0625 2.4375 -0.890625 2.4375 -1 C 2.4375 -1.09375 2.34375 -1.09375 2.328125 -1.09375 C 2.234375 -1.09375 2.21875 -1.046875 2.1875 -0.96875 C 2.03125 -0.40625 1.734375 -0.125 1.453125 -0.125 C 1.3125 -0.125 1.28125 -0.21875 1.28125 -0.375 C 1.28125 -0.53125 1.328125 -0.65625 1.390625 -0.8125 C 1.46875 -1 1.546875 -1.1875 1.609375 -1.375 C 1.671875 -1.546875 1.9375 -2.171875 1.953125 -2.265625 C 1.984375 -2.328125 2 -2.40625 2 -2.484375 C 2 -2.8125 1.71875 -3.078125 1.34375 -3.078125 C 0.640625 -3.078125 0.328125 -2.125 0.328125 -2 C 0.328125 -1.921875 0.421875 -1.921875 0.453125 -1.921875 C 0.546875 -1.921875 0.546875 -1.953125 0.578125 -2.03125 C 0.75 -2.625 1.0625 -2.875 1.3125 -2.875 C 1.421875 -2.875 1.484375 -2.828125 1.484375 -2.640625 C 1.484375 -2.46875 1.453125 -2.375 1.28125 -1.9375 Z M 0.84375 -0.8125 "
           id="path5284" />
      </symbol>
    </g>
    <g
       id="g7725">
      <symbol
         overflow="visible"
         id="symbol3995">
        <path
           style="stroke:none;"
           d=""
           id="path5777" />
      </symbol>
      <symbol
         overflow="visible"
         id="symbol1798">
        <path
           style="stroke:none;"
           d="M 2.796875 -6.765625 C 2.8125 -6.875 2.8125 -6.890625 2.8125 -6.921875 C 2.8125 -7 2.796875 -7.03125 2.703125 -7.03125 C 2.59375 -7.03125 2.296875 -6.875 2.09375 -6.78125 C 1.640625 -6.546875 1.25 -6.359375 1.25 -6.1875 C 1.25 -6.125 1.328125 -6.125 1.359375 -6.125 C 1.484375 -6.125 1.75 -6.265625 1.9375 -6.34375 C 1.8125 -5.375 1.578125 -4.09375 1.390625 -3.234375 C 1.03125 -1.546875 0.84375 -0.9375 0.34375 0.03125 C 0.296875 0.125 0.296875 0.140625 0.296875 0.15625 C 0.296875 0.21875 0.375 0.21875 0.40625 0.21875 C 0.5625 0.21875 0.984375 0.046875 1.140625 -0.234375 C 1.265625 -0.46875 1.640625 -1.203125 1.9375 -2.359375 C 2.15625 -3.203125 2.546875 -4.515625 3.25 -5.546875 C 3.703125 -6.1875 4.125 -6.484375 4.75 -6.484375 C 5.296875 -6.484375 5.78125 -6.140625 5.78125 -5.609375 C 5.78125 -4.734375 4.828125 -4.421875 3.796875 -4.0625 C 3.671875 -4.03125 2.984375 -3.78125 2.984375 -3.53125 C 2.984375 -3.484375 3.0625 -3.46875 3.09375 -3.46875 C 3.125 -3.46875 3.359375 -3.515625 3.5625 -3.515625 C 4.578125 -3.515625 5.390625 -2.90625 5.390625 -1.96875 C 5.390625 -0.734375 4.34375 -0.328125 3.421875 -0.328125 C 2.65625 -0.328125 2.296875 -0.75 2.15625 -0.890625 C 2.125 -0.9375 2.109375 -0.953125 2.03125 -0.953125 C 1.8125 -0.953125 1.3125 -0.640625 1.3125 -0.46875 C 1.3125 -0.4375 1.6875 0.21875 2.765625 0.21875 C 4.171875 0.21875 6.234375 -0.78125 6.234375 -2.375 C 6.234375 -3.21875 5.6875 -3.84375 4.671875 -4.03125 C 5.46875 -4.375 6.625 -5.09375 6.625 -6.03125 C 6.625 -6.609375 6.15625 -7.03125 5.40625 -7.03125 C 5.078125 -7.03125 3.796875 -6.953125 2.59375 -5.453125 Z M 2.796875 -6.765625 "
           id="path2966" />
      </symbol>
      <symbol
         overflow="visible"
         id="symbol2019">
        <path
           style="stroke:none;"
           d=""
           id="path5661" />
      </symbol>
      <symbol
         overflow="visible"
         id="symbol3328">
        <path
           style="stroke:none;"
           d="M 2.265625 -4.359375 C 2.265625 -4.46875 2.171875 -4.625 1.984375 -4.625 C 1.796875 -4.625 1.59375 -4.4375 1.59375 -4.234375 C 1.59375 -4.125 1.671875 -3.96875 1.875 -3.96875 C 2.0625 -3.96875 2.265625 -4.171875 2.265625 -4.359375 Z M 0.84375 -0.8125 C 0.8125 -0.71875 0.78125 -0.640625 0.78125 -0.515625 C 0.78125 -0.1875 1.046875 0.0625 1.4375 0.0625 C 2.125 0.0625 2.4375 -0.890625 2.4375 -1 C 2.4375 -1.09375 2.34375 -1.09375 2.328125 -1.09375 C 2.234375 -1.09375 2.21875 -1.046875 2.1875 -0.96875 C 2.03125 -0.40625 1.734375 -0.125 1.453125 -0.125 C 1.3125 -0.125 1.28125 -0.21875 1.28125 -0.375 C 1.28125 -0.53125 1.328125 -0.65625 1.390625 -0.8125 C 1.46875 -1 1.546875 -1.1875 1.609375 -1.375 C 1.671875 -1.546875 1.9375 -2.171875 1.953125 -2.265625 C 1.984375 -2.328125 2 -2.40625 2 -2.484375 C 2 -2.8125 1.71875 -3.078125 1.34375 -3.078125 C 0.640625 -3.078125 0.328125 -2.125 0.328125 -2 C 0.328125 -1.921875 0.421875 -1.921875 0.453125 -1.921875 C 0.546875 -1.921875 0.546875 -1.953125 0.578125 -2.03125 C 0.75 -2.625 1.0625 -2.875 1.3125 -2.875 C 1.421875 -2.875 1.484375 -2.828125 1.484375 -2.640625 C 1.484375 -2.46875 1.453125 -2.375 1.28125 -1.9375 Z M 0.84375 -0.8125 "
           id="path6758" />
      </symbol>
      <symbol
         overflow="visible"
         id="symbol8803">
        <path
           style="stroke:none;"
           d=""
           id="path1624" />
      </symbol>
      <symbol
         overflow="visible"
         id="symbol3804">
        <path
           style="stroke:none;"
           d="M 3.21875 -1.578125 L 5.359375 -1.578125 C 5.453125 -1.578125 5.609375 -1.578125 5.609375 -1.734375 C 5.609375 -1.921875 5.453125 -1.921875 5.359375 -1.921875 L 3.21875 -1.921875 L 3.21875 -4.0625 C 3.21875 -4.140625 3.21875 -4.3125 3.0625 -4.3125 C 2.890625 -4.3125 2.890625 -4.15625 2.890625 -4.0625 L 2.890625 -1.921875 L 0.75 -1.921875 C 0.65625 -1.921875 0.484375 -1.921875 0.484375 -1.75 C 0.484375 -1.578125 0.640625 -1.578125 0.75 -1.578125 L 2.890625 -1.578125 L 2.890625 0.5625 C 2.890625 0.65625 2.890625 0.828125 3.046875 0.828125 C 3.21875 0.828125 3.21875 0.65625 3.21875 0.5625 Z M 3.21875 -1.578125 "
           id="path9026" />
      </symbol>
      <symbol
         overflow="visible"
         id="symbol1849">
        <path
           style="stroke:none;"
           d="M 2.328125 -4.4375 C 2.328125 -4.625 2.328125 -4.625 2.125 -4.625 C 1.671875 -4.1875 1.046875 -4.1875 0.765625 -4.1875 L 0.765625 -3.9375 C 0.921875 -3.9375 1.390625 -3.9375 1.765625 -4.125 L 1.765625 -0.578125 C 1.765625 -0.34375 1.765625 -0.25 1.078125 -0.25 L 0.8125 -0.25 L 0.8125 0 C 0.9375 0 1.796875 -0.03125 2.046875 -0.03125 C 2.265625 -0.03125 3.140625 0 3.296875 0 L 3.296875 -0.25 L 3.03125 -0.25 C 2.328125 -0.25 2.328125 -0.34375 2.328125 -0.578125 Z M 2.328125 -4.4375 "
           id="path7680" />
      </symbol>
    </g>
  </defs>
  <sodipodi:namedview
     id="base"
     pagecolor="#ffffff"
     bordercolor="#666666"
     borderopacity="1.0"
     inkscape:pageopacity="0.0"
     inkscape:pageshadow="2"
     inkscape:zoom="2"
     inkscape:cx="107.92489"
     inkscape:cy="77.06259"
     inkscape:document-units="px"
     inkscape:current-layer="layer1"
     showgrid="false"
     units="in"
     inkscape:window-width="1878"
     inkscape:window-height="2094"
     inkscape:window-x="1932"
     inkscape:window-y="50"
     inkscape:window-maximized="1"
     inkscape:document-rotation="0" />
  <metadata
     id="metadata5">
    <rdf:RDF>
      <cc:Work
         rdf:about="">
        <dc:format>image/svg+xml</dc:format>
        <dc:type
           rdf:resource="http://purl.org/dc/dcmitype/StillImage" />
        <dc:title></dc:title>
      </cc:Work>
    </rdf:RDF>
  </metadata>
  <g
     inkscape:label="Layer 1"
     inkscape:groupmode="layer"
     id="layer1"
     transform="translate(-1.12524, -38.3231)">
    <path
       id="path834"
       style="fill:#ff0000;fill-opacity:0.5;stroke:#000000;stroke-width:3;stroke-linecap:round;stop-color:#000000"
       d="M 81.518139,80.737472 C 73.1302,83.49193 65.870051,89.075211 60.32055,95.887483 c -3.107366,3.640296 -6.214731,7.280597 -9.322097,10.920887 -6.40873,4.37164 -13.922951,6.57282 -21.166703,9.10235 -1.451187,0.4827 -2.902374,0.96541 -4.353559,1.44813 -6.855774,4.65268 -11.721553,12.26931 -12.752311,20.54189 -0.273225,2.34112 -0.506123,4.68738 -0.764126,7.03045 1.12884,4.11311 3.273152,7.83315 5.413676,11.48411 3.492512,4.29579 7.454003,8.17041 11.359962,12.08042 3.77141,2.0094 8.197308,2.05515 12.34885,1.68788 6.149701,-0.71274 12.203328,-2.71523 18.452528,-2.20815 5.564871,0.58618 10.557035,3.37046 15.26499,6.22013 4.099843,2.56826 8.332338,5.13845 13.104504,6.205 4.214291,1.0408 8.572393,1.35758 12.899386,1.4416 5.8895,0.0494 11.74436,-0.9583 17.40565,-2.53944 4.86461,-1.16662 9.87892,-2.60884 14.9198,-1.78518 4.88071,0.65413 9.71073,2.11725 14.67913,1.78045 4.39565,-0.63717 8.07764,-3.32476 11.73397,-5.65416 5.83621,-3.89437 11.67132,-8.07318 18.46102,-10.1216 13.74223,-4.57679 27.48447,-9.15359 41.2267,-13.73039 3.37118,-1.65945 5.3929,-5.46978 5.27639,-9.18444 0.17596,-4.13927 0.35192,-8.27852 0.52788,-12.41778 -0.90645,-2.85442 -3.61453,-4.64862 -6.3061,-5.59238 -4.42184,-1.45552 -8.84367,-2.91103 -13.26551,-4.36654 -5.28329,-3.64758 -9.01978,-9.10078 -11.78842,-14.81959 -2.10203,-4.265174 -4.20406,-8.530342 -6.3061,-12.795511 -2.07441,-2.297299 -4.14881,-4.594597 -6.22323,-6.891896 -2.09166,-0.954539 -4.4115,-1.170482 -6.67774,-1.306634 -14.23919,4.007975 -28.40291,8.27813 -42.56849,12.53893 -9.43264,1.013876 -18.98607,-0.927948 -27.72086,-4.481731 -6.619353,-2.632897 -12.996884,-5.826548 -19.528447,-8.664077 -1.00329,-0.41826 -2.010132,-1.119599 -3.133154,-1.072739 z" />
    <path
       id="path857"
       style="fill:#0000ff;fill-opacity:0.5;stroke:#000000;stroke-width:3;stroke-linecap:round;stroke-miterlimit:4;stroke-dasharray:none;stop-color:#000000"
       d="M 187.54492 67.554688 C 184.49764 67.591787 181.46311 67.900612 178.42578 68.121094 C 175.02274 70.420032 171.54058 73.018314 167.34961 73.560547 C 162.12727 74.42249 156.72428 74.368131 151.66406 76.072266 C 146.24188 81.153279 141.25316 86.66766 136.01953 91.9375 C 132.58959 93.817959 128.77255 94.807093 125.04643 95.915791 C 117.45805 98.041441 109.73235 99.625611 102.10932 101.6177 C 99.981929 102.17216 97.799172 102.59879 95.756897 103.42008 C 93.49438 104.67884 91.883802 106.9064 91.09375 109.34375 C 91.942057 113.4082 92.790365 117.47266 93.638672 121.53711 C 92.909505 127.40951 92.180339 133.2819 91.451172 139.1543 C 92.780902 142.40666 95.818648 144.55043 98.87481 146.03469 C 103.73032 148.04863 109.07516 148.11103 114.14867 149.24377 C 115.09847 149.35206 116.37779 149.29917 116.83785 150.33752 C 120.50909 155.78231 124.18032 161.22709 127.85156 166.67188 C 135.51116 172.23599 146.06979 173.34486 154.79688 169.75781 C 163.31836 166.95768 171.83984 164.15755 180.36133 161.35742 C 186.68675 161.46488 192.71499 163.8681 198.16602 166.92188 C 205.69831 170.7434 213.25008 174.9068 221.63047 176.52508 C 227.81534 177.66294 234.13552 177.28885 240.37891 177.00391 C 245.23677 174.86756 248.74252 170.23317 249.94732 165.11722 C 250.64652 162.97398 251.34572 160.83074 252.04492 158.6875 C 258.16577 156.90254 264.53965 156.32959 270.80273 155.25391 C 272.04362 154.69141 273.28451 154.12891 274.52539 153.56641 C 279.30901 147.38154 283.97062 141.02922 289.72656 135.69336 C 291.97786 133.201 294.13763 130.28202 294.41602 126.82031 C 294.32186 121.40592 291.85513 116.26255 288.35352 112.2207 C 285.6015 108.41008 282.52145 104.59913 281.4043 99.929688 C 280.75337 95.257729 282.30718 90.698265 283.25195 86.181641 C 284.00732 84.141126 283.40104 81.490598 281.41307 80.384936 C 278.88002 78.56956 275.69755 78.180346 272.74499 77.461558 C 266.57323 76.202238 260.24196 75.309619 254.43647 72.739928 C 251.85022 71.760212 249.26398 70.780497 246.67773 69.800781 C 240.3272 69.920481 234.18342 72.487785 227.79102 71.767578 C 223.94099 71.258358 219.95613 70.114952 216.11407 71.289217 C 213.3217 72.094424 210.84332 74.129094 207.82619 74.022212 C 204.46013 73.662219 201.67926 71.539747 198.60392 70.323003 C 195.13654 68.741218 191.41307 67.401672 187.54492 67.554688 z " />
    <rect
       style="fill:none;stroke:#000000;stroke-width:3;stroke-linecap:round;stroke-miterlimit:4;stroke-dasharray:none;stop-color:#000000"
       id="rect883"
       width="307.58691"
       height="153.60028"
       x="2.6252441"
       y="39.823105" />
    <path
       id="path885"
       style="fill:none;fill-opacity:0.5;stroke:#000000;stroke-width:3;stroke-linecap:round;stroke-miterlimit:4;stroke-dasharray:6, 6;stroke-dashoffset:0;stop-color:#000000"
       d="m 167.6753,91.643758 c 4.26526,0.47422 8.03028,2.832326 11.39639,5.354104 5.04593,3.702548 9.50346,8.380568 15.34773,10.859668 2.81529,1.01676 5.90559,0.94448 8.84043,0.57906 5.65486,-0.79829 11.07403,-2.67016 16.55641,-4.19976 4.56124,-1.31632 9.12078,-2.64264 13.72465,-3.80357 8.80721,-0.620651 17.47376,5.86586 19.46988,14.45355 2.33437,8.2026 -0.34171,17.6895 -6.85321,23.25521 -6.29409,4.67502 -14.41543,6.39131 -22.13924,5.69296 -9.51118,-0.61265 -18.86232,-2.91756 -28.41875,-2.95536 -5.46696,0.59374 -10.34066,3.42553 -14.83884,6.40935 -2.45456,1.55454 -5.98383,1.97593 -8.34885,0.0283 -3.3614,-4.00062 -4.56676,-9.2314 -5.70176,-14.20455 -1.22128,-5.70724 -2.43694,-11.44413 -4.52537,-16.9106 -1.61378,-4.62482 -3.50797,-9.26822 -3.83847,-14.20559 -0.0692,-4.033987 2.17219,-8.284565 6.0235,-9.823625 1.05339,-0.390059 2.18262,-0.576244 3.3055,-0.529275 z" />
    <text
       xml:space="preserve"
       style="font-size:16px;line-height:0.4;font-family:'DejaVu Sans';-inkscape-font-specification:'DejaVu Sans, Normal';text-align:center;letter-spacing:0px;word-spacing:0px;writing-mode:lr-tb;text-anchor:middle"
       x="71.257339"
       y="58.133057"
       id="text890"><tspan
         sodipodi:role="line"
         id="tspan888"
         x="71.257339"
         y="58.133057"
         style="font-size:16px">Image Statistics</tspan></text>
    <g
       inkscape:label=""
       transform="matrix(1.37016,0,0,1.37016,-101.43262,22.852884)"
       id="g941"
       style="stroke-width:0.729842">
      <g
         id="g4408"
         style="stroke-width:0.729842">
        <g
           style="fill:#000000;fill-opacity:1;stroke-width:0.729842"
           id="g5997">
          <use
             xlink:href="#symbol7372"
             x="91.925003"
             y="81.962997"
             id="use6284"
             width="100%"
             height="100%"
             style="stroke-width:0.729842" />
        </g>
      </g>
    </g>
    <g
       inkscape:label=""
       transform="matrix(1.37016,0,0,1.37016,134.53255,-19.313127)"
       id="g1001"
       style="stroke-width:0.729842">
      <g
         id="g7375"
         style="stroke-width:0.729842">
        <g
           style="fill:#000000;fill-opacity:1;stroke-width:0.729842"
           id="g305">
          <use
             xlink:href="#symbol6589"
             x="91.925003"
             y="81.962997"
             id="use8378"
             width="100%"
             height="100%"
             style="stroke-width:0.729842" />
        </g>
        <g
           style="fill:#000000;fill-opacity:1;stroke-width:0.729842"
           id="g6412">
          <use
             xlink:href="#symbol3429"
             x="98.469002"
             y="83.457001"
             id="use2646"
             width="100%"
             height="100%"
             style="stroke-width:0.729842" />
        </g>
      </g>
    </g>
    <g
       inkscape:label=""
       transform="matrix(1.37016,0,0,1.37016,93.46921,5.9207928)"
       id="g1080"
       style="stroke-width:0.729842">
      <g
         id="g5185"
         style="stroke-width:0.729842">
        <g
           style="fill:#000000;fill-opacity:1;stroke-width:0.729842"
           id="g3670">
          <use
             xlink:href="#symbol1798"
             x="91.925003"
             y="81.962997"
             id="use1314"
             width="100%"
             height="100%"
             style="stroke-width:0.729842" />
        </g>
        <g
           style="fill:#000000;fill-opacity:1;stroke-width:0.729842"
           id="g4674">
          <use
             xlink:href="#symbol3328"
             x="98.469002"
             y="83.457001"
             id="use6532"
             width="100%"
             height="100%"
             style="stroke-width:0.729842" />
        </g>
        <g
           style="fill:#000000;fill-opacity:1;stroke-width:0.729842"
           id="g3792">
          <use
             xlink:href="#symbol3804"
             x="101.288"
             y="83.457001"
             id="use8261"
             width="100%"
             height="100%"
             style="stroke-width:0.729842" />
          <use
             xlink:href="#symbol1849"
             x="107.40402"
             y="83.457001"
             id="use6023"
             width="100%"
             height="100%"
             style="stroke-width:0.729842" />
        </g>
      </g>
    </g>
  </g>
</svg>
