<?xml version="1.0" encoding="UTF-8" standalone="no"?>
<svg
   xmlns:dc="http://purl.org/dc/elements/1.1/"
   xmlns:cc="http://creativecommons.org/ns#"
   xmlns:rdf="http://www.w3.org/1999/02/22-rdf-syntax-ns#"
   xmlns:svg="http://www.w3.org/2000/svg"
   xmlns="http://www.w3.org/2000/svg"
   xmlns:xlink="http://www.w3.org/1999/xlink"
   xmlns:sodipodi="http://sodipodi.sourceforge.net/DTD/sodipodi-0.dtd"
   xmlns:inkscape="http://www.inkscape.org/namespaces/inkscape"
   width="310.58691"
   height="156.60028"
   viewBox="0 0 310.58691 156.60028"
   version="1.1"
   id="svg8"
   inkscape:version="1.0.2 (1.0.2+r75+1)"
   sodipodi:docname="sensitivities.svg">
  <defs
     id="defs2">
    <g
       id="g9477">
      <symbol
         overflow="visible"
         id="symbol2440">
        <path
           style="stroke:none"
           d=""
           id="path8256" />
      </symbol>
      <symbol
         overflow="visible"
         id="symbol7372">
        <path
           style="stroke:none"
           d="m 3.84375,-5.578125 c 0.265625,1.296875 0.703125,3.4375 1.265625,4.59375 0.21875,0.421875 0.328125,0.640625 0.4375,0.640625 0.03125,0 0.0625,0 0.234375,-0.171875 C 6.546875,-1.25 7.0625,-1.828125 7.75,-2.625 l 2.1875,-2.53125 c -0.140625,0.84375 -0.5,3.078125 -0.5,4.25 0,0.265625 0.015625,0.53125 0.046875,0.796875 0,0.109375 0.046875,0.40625 0.46875,0.40625 0.421875,0 1.171875,-0.453125 1.171875,-0.640625 0,-0.0625 -0.0625,-0.078125 -0.09375,-0.078125 -0.125,0 -0.328125,0.09375 -0.4375,0.15625 -0.234375,-0.03125 -0.25,-0.1875 -0.28125,-0.40625 -0.03125,-0.328125 -0.03125,-0.625 -0.03125,-0.65625 0,-1.109375 0.4375,-4.140625 0.734375,-5.375 0.01563,-0.0625 0.01563,-0.078125 0.01563,-0.171875 0,-0.03125 0,-0.140625 -0.07813,-0.140625 -0.03125,0 -0.04687,0 -0.234375,0.234375 -0.9375,1.125 -3.84375,4.625 -4.84375,5.453125 C 5.625,-1.859375 5.453125,-2.234375 5.109375,-3.625 4.8125,-4.75 4.640625,-5.578125 4.46875,-6.546875 4.453125,-6.6875 4.390625,-6.953125 4.390625,-6.984375 4.359375,-7.03125 4.3125,-7.03125 4.28125,-7.03125 c -0.171875,0 -0.59375,0.21875 -0.625,0.4375 -0.125,0.828125 -0.3125,2.140625 -1.015625,4.046875 -0.796875,2.125 -1.015625,2.125 -1.203125,2.125 -0.125,0 -0.5,-0.078125 -0.71875,-0.28125 C 0.671875,-0.75 0.640625,-0.75 0.625,-0.75 c -0.140625,0 -0.359375,0.453125 -0.359375,0.734375 0,0.078125 0,0.203125 0.328125,0.375 C 0.84375,0.484375 1.078125,0.5 1.125,0.5 1.75,0.5 2.328125,-0.921875 2.53125,-1.4375 3,-2.5625 3.5625,-4.140625 3.84375,-5.578125 Z m 0,0"
           id="path9671" />
      </symbol>
    </g>
    <g
       id="g648">
      <symbol
         overflow="visible"
         id="symbol9213">
        <path
           style="stroke:none"
           d=""
           id="path5871" />
      </symbol>
      <symbol
         overflow="visible"
         id="symbol6589">
        <path
           style="stroke:none"
           d="M 2.796875,-6.765625 C 2.8125,-6.875 2.8125,-6.890625 2.8125,-6.921875 2.8125,-7 2.796875,-7.03125 2.703125,-7.03125 c -0.109375,0 -0.40625,0.15625 -0.609375,0.25 C 1.640625,-6.546875 1.25,-6.359375 1.25,-6.1875 c 0,0.0625 0.078125,0.0625 0.109375,0.0625 0.125,0 0.390625,-0.140625 0.578125,-0.21875 -0.125,0.96875 -0.359375,2.25 -0.546875,3.109375 C 1.03125,-1.546875 0.84375,-0.9375 0.34375,0.03125 0.296875,0.125 0.296875,0.140625 0.296875,0.15625 c 0,0.0625 0.078125,0.0625 0.109375,0.0625 0.15625,0 0.578125,-0.171875 0.734375,-0.453125 0.125,-0.234375 0.5,-0.96875 0.796875,-2.125 0.21875,-0.84375 0.609375,-2.15625 1.3125,-3.1875 0.453125,-0.640625 0.875,-0.9375 1.5,-0.9375 0.546875,0 1.03125,0.34375 1.03125,0.875 0,0.875 -0.953125,1.1875 -1.984375,1.546875 -0.125,0.03125 -0.8125,0.28125 -0.8125,0.53125 0,0.046875 0.078125,0.0625 0.109375,0.0625 0.03125,0 0.265625,-0.046875 0.46875,-0.046875 1.015625,0 1.828125,0.609375 1.828125,1.546875 0,1.234375 -1.046875,1.640625 -1.96875,1.640625 -0.765625,0 -1.125,-0.421875 -1.265625,-0.5625 -0.03125,-0.046875 -0.046875,-0.0625 -0.125,-0.0625 -0.21875,0 -0.71875,0.3125 -0.71875,0.484375 0,0.03125 0.375,0.6875 1.453125,0.6875 1.40625,0 3.46875,-1 3.46875,-2.59375 0,-0.84375 -0.546875,-1.46875 -1.5625,-1.65625 0.796875,-0.34375 1.953125,-1.0625 1.953125,-2 0,-0.578125 -0.46875,-1 -1.21875,-1 -0.328125,0 -1.609375,0.078125 -2.8125,1.578125 z m 0,0"
           id="path7692" />
      </symbol>
      <symbol
         overflow="visible"
         id="symbol9288">
        <path
           style="stroke:none"
           d=""
           id="path1839" />
      </symbol>
      <symbol
         overflow="visible"
         id="symbol3429">
        <path
           style="stroke:none"
           d="m 2.265625,-4.359375 c 0,-0.109375 -0.09375,-0.265625 -0.28125,-0.265625 -0.1875,0 -0.390625,0.1875 -0.390625,0.390625 0,0.109375 0.078125,0.265625 0.28125,0.265625 0.1875,0 0.390625,-0.203125 0.390625,-0.390625 z M 0.84375,-0.8125 c -0.03125,0.09375 -0.0625,0.171875 -0.0625,0.296875 0,0.328125 0.265625,0.578125 0.65625,0.578125 0.6875,0 1,-0.953125 1,-1.0625 0,-0.09375 -0.09375,-0.09375 -0.109375,-0.09375 -0.09375,0 -0.109375,0.046875 -0.140625,0.125 -0.15625,0.5625 -0.453125,0.84375 -0.734375,0.84375 -0.140625,0 -0.171875,-0.09375 -0.171875,-0.25 0,-0.15625 0.046875,-0.28125 0.109375,-0.4375 C 1.46875,-1 1.546875,-1.1875 1.609375,-1.375 1.671875,-1.546875 1.9375,-2.171875 1.953125,-2.265625 1.984375,-2.328125 2,-2.40625 2,-2.484375 2,-2.8125 1.71875,-3.078125 1.34375,-3.078125 0.640625,-3.078125 0.328125,-2.125 0.328125,-2 c 0,0.078125 0.09375,0.078125 0.125,0.078125 0.09375,0 0.09375,-0.03125 0.125,-0.109375 C 0.75,-2.625 1.0625,-2.875 1.3125,-2.875 c 0.109375,0 0.171875,0.046875 0.171875,0.234375 0,0.171875 -0.03125,0.265625 -0.203125,0.703125 z m 0,0"
           id="path5284" />
      </symbol>
    </g>
    <g
       id="g7725">
      <symbol
         overflow="visible"
         id="symbol3995">
        <path
           style="stroke:none"
           d=""
           id="path5777" />
      </symbol>
      <symbol
         overflow="visible"
         id="symbol1798">
        <path
           style="stroke:none"
           d="M 2.796875,-6.765625 C 2.8125,-6.875 2.8125,-6.890625 2.8125,-6.921875 2.8125,-7 2.796875,-7.03125 2.703125,-7.03125 c -0.109375,0 -0.40625,0.15625 -0.609375,0.25 C 1.640625,-6.546875 1.25,-6.359375 1.25,-6.1875 c 0,0.0625 0.078125,0.0625 0.109375,0.0625 0.125,0 0.390625,-0.140625 0.578125,-0.21875 -0.125,0.96875 -0.359375,2.25 -0.546875,3.109375 C 1.03125,-1.546875 0.84375,-0.9375 0.34375,0.03125 0.296875,0.125 0.296875,0.140625 0.296875,0.15625 c 0,0.0625 0.078125,0.0625 0.109375,0.0625 0.15625,0 0.578125,-0.171875 0.734375,-0.453125 0.125,-0.234375 0.5,-0.96875 0.796875,-2.125 0.21875,-0.84375 0.609375,-2.15625 1.3125,-3.1875 0.453125,-0.640625 0.875,-0.9375 1.5,-0.9375 0.546875,0 1.03125,0.34375 1.03125,0.875 0,0.875 -0.953125,1.1875 -1.984375,1.546875 -0.125,0.03125 -0.8125,0.28125 -0.8125,0.53125 0,0.046875 0.078125,0.0625 0.109375,0.0625 0.03125,0 0.265625,-0.046875 0.46875,-0.046875 1.015625,0 1.828125,0.609375 1.828125,1.546875 0,1.234375 -1.046875,1.640625 -1.96875,1.640625 -0.765625,0 -1.125,-0.421875 -1.265625,-0.5625 -0.03125,-0.046875 -0.046875,-0.0625 -0.125,-0.0625 -0.21875,0 -0.71875,0.3125 -0.71875,0.484375 0,0.03125 0.375,0.6875 1.453125,0.6875 1.40625,0 3.46875,-1 3.46875,-2.59375 0,-0.84375 -0.546875,-1.46875 -1.5625,-1.65625 0.796875,-0.34375 1.953125,-1.0625 1.953125,-2 0,-0.578125 -0.46875,-1 -1.21875,-1 -0.328125,0 -1.609375,0.078125 -2.8125,1.578125 z m 0,0"
           id="path2966" />
      </symbol>
      <symbol
         overflow="visible"
         id="symbol2019">
        <path
           style="stroke:none"
           d=""
           id="path5661" />
      </symbol>
      <symbol
         overflow="visible"
         id="symbol3328">
        <path
           style="stroke:none"
           d="m 2.265625,-4.359375 c 0,-0.109375 -0.09375,-0.265625 -0.28125,-0.265625 -0.1875,0 -0.390625,0.1875 -0.390625,0.390625 0,0.109375 0.078125,0.265625 0.28125,0.265625 0.1875,0 0.390625,-0.203125 0.390625,-0.390625 z M 0.84375,-0.8125 c -0.03125,0.09375 -0.0625,0.171875 -0.0625,0.296875 0,0.328125 0.265625,0.578125 0.65625,0.578125 0.6875,0 1,-0.953125 1,-1.0625 0,-0.09375 -0.09375,-0.09375 -0.109375,-0.09375 -0.09375,0 -0.109375,0.046875 -0.140625,0.125 -0.15625,0.5625 -0.453125,0.84375 -0.734375,0.84375 -0.140625,0 -0.171875,-0.09375 -0.171875,-0.25 0,-0.15625 0.046875,-0.28125 0.109375,-0.4375 C 1.46875,-1 1.546875,-1.1875 1.609375,-1.375 1.671875,-1.546875 1.9375,-2.171875 1.953125,-2.265625 1.984375,-2.328125 2,-2.40625 2,-2.484375 2,-2.8125 1.71875,-3.078125 1.34375,-3.078125 0.640625,-3.078125 0.328125,-2.125 0.328125,-2 c 0,0.078125 0.09375,0.078125 0.125,0.078125 0.09375,0 0.09375,-0.03125 0.125,-0.109375 C 0.75,-2.625 1.0625,-2.875 1.3125,-2.875 c 0.109375,0 0.171875,0.046875 0.171875,0.234375 0,0.171875 -0.03125,0.265625 -0.203125,0.703125 z m 0,0"
           id="path6758" />
      </symbol>
      <symbol
         overflow="visible"
         id="symbol8803">
        <path
           style="stroke:none"
           d=""
           id="path1624" />
      </symbol>
      <symbol
         overflow="visible"
         id="symbol3804">
        <path
           style="stroke:none"
           d="m 3.21875,-1.578125 h 2.140625 c 0.09375,0 0.25,0 0.25,-0.15625 0,-0.1875 -0.15625,-0.1875 -0.25,-0.1875 H 3.21875 V -4.0625 c 0,-0.078125 0,-0.25 -0.15625,-0.25 -0.171875,0 -0.171875,0.15625 -0.171875,0.25 v 2.140625 H 0.75 c -0.09375,0 -0.265625,0 -0.265625,0.171875 0,0.171875 0.15625,0.171875 0.265625,0.171875 H 2.890625 V 0.5625 c 0,0.09375 0,0.265625 0.15625,0.265625 0.171875,0 0.171875,-0.171875 0.171875,-0.265625 z m 0,0"
           id="path9026" />
      </symbol>
      <symbol
         overflow="visible"
         id="symbol1849">
        <path
           style="stroke:none"
           d="m 2.328125,-4.4375 c 0,-0.1875 0,-0.1875 -0.203125,-0.1875 -0.453125,0.4375 -1.078125,0.4375 -1.359375,0.4375 v 0.25 c 0.15625,0 0.625,0 1,-0.1875 v 3.546875 c 0,0.234375 0,0.328125 -0.6875,0.328125 H 0.8125 V 0 c 0.125,0 0.984375,-0.03125 1.234375,-0.03125 0.21875,0 1.09375,0.03125 1.25,0.03125 V -0.25 H 3.03125 c -0.703125,0 -0.703125,-0.09375 -0.703125,-0.328125 z m 0,0"
           id="path7680" />
      </symbol>
    </g>
  </defs>
  <sodipodi:namedview
     id="base"
     pagecolor="#ffffff"
     bordercolor="#666666"
     borderopacity="1.0"
     inkscape:pageopacity="0.0"
     inkscape:pageshadow="2"
     inkscape:zoom="4"
     inkscape:cx="128.44088"
     inkscape:cy="140.01401"
     inkscape:document-units="px"
     inkscape:current-layer="layer1"
     showgrid="false"
     units="px"
     inkscape:window-width="1898"
     inkscape:window-height="2094"
     inkscape:window-x="1932"
     inkscape:window-y="50"
     inkscape:window-maximized="1"
     inkscape:document-rotation="0" />
  <metadata
     id="metadata5">
    <rdf:RDF>
      <cc:Work
         rdf:about="">
        <dc:format>image/svg+xml</dc:format>
        <dc:type
           rdf:resource="http://purl.org/dc/dcmitype/StillImage" />
        <dc:title />
      </cc:Work>
    </rdf:RDF>
  </metadata>
  <g
     inkscape:label="Layer 1"
     inkscape:groupmode="layer"
     id="layer1"
     transform="translate(-1.12524,-38.3231)">
    <path
       id="path834"
       style="fill:#ff0000;fill-opacity:0.5;stroke:#000000;stroke-width:3;stroke-linecap:round;stop-color:#000000"
       d="M 81.787109 81.109375 C 79.431003 81.832575 77.246277 82.992646 75.042969 84.076172 C 71.266997 86.355721 67.652445 88.952696 64.54729 92.099821 C 60.683501 96.038069 56.970815 100.1203 53.220703 104.16602 C 50.743933 106.58078 47.728062 108.3645 44.589744 109.77928 C 41.709886 111.09116 38.767689 112.26082 35.838493 113.45706 C 33.258214 114.50392 30.677935 115.55079 28.097656 116.59766 C 22.932322 119.23418 18.693787 123.60258 16.141371 128.80326 C 14.476391 132.08134 13.524144 135.66582 12.874514 139.26955 C 12.652248 140.62736 12.281361 141.9938 12.460598 143.37976 C 12.695429 145.44033 13.246648 147.4615 14.094482 149.35477 C 14.976618 151.31883 15.998521 153.21705 16.960938 155.14258 C 17.66793 156.29497 18.672675 157.21779 19.533154 158.2505 C 21.99541 161.03614 24.457666 163.82178 26.919922 166.60742 C 28.500505 167.78211 30.278062 168.67897 32.142578 169.30664 C 36.324074 169.84527 40.565051 169.77236 44.750173 169.31204 C 48.183861 168.95235 51.61722 168.58944 55.050781 168.22852 C 58.876522 168.39693 62.714779 169.03714 66.281208 170.46727 C 70.480588 172.08249 74.478119 174.16075 78.55752 176.04758 C 81.586663 177.47544 84.652363 178.88074 87.905316 179.72219 C 92.258202 180.80732 96.753157 181.28888 101.23668 181.25195 C 106.23891 181.25117 111.17791 180.36722 116.11105 179.64254 C 120.03295 179.0344 123.95359 178.41798 127.875 177.80664 C 133.29966 177.83078 138.69303 178.47592 144.09678 178.86915 C 146.27053 178.95843 148.43117 178.63409 150.59218 178.45253 C 153.31067 178.17738 156.02704 177.88247 158.74219 177.57617 C 161.17295 177.11952 163.50149 176.23268 165.9351 175.79412 C 167.42491 175.55849 168.98211 175.84556 170.29851 176.57933 C 172.22038 177.49787 174.1015 178.64902 176.25052 178.9343 C 178.29056 179.22436 180.36091 178.63425 182.15306 177.67631 C 184.28062 176.56549 186.16324 175.05963 188.1875 173.78125 C 189.58228 172.84571 191.07835 171.8968 191.91587 170.38812 C 193.02957 168.34091 193.67057 166.08305 194.63281 163.9668 C 195.38676 162.47889 196.83644 161.51814 198.29688 160.81055 C 200.69625 159.61747 203.11109 158.42771 205.31613 156.89373 C 207.95504 155.20735 210.59807 153.48958 213.49023 152.26172 C 215.05339 151.57031 216.61654 150.87891 218.17969 150.1875 C 220.05005 149.10925 221.67656 147.59296 222.82105 145.75776 C 223.54883 144.62992 224.07194 143.36247 224.25606 142.02782 C 224.45936 140.72831 224.42048 139.40723 224.52894 138.09867 C 224.68271 135.37828 224.83647 132.65789 224.99023 129.9375 C 224.92179 128.68568 224.38864 127.53099 223.91992 126.38867 C 222.46722 125.06376 220.67536 124.21307 218.95117 123.30664 C 215.04994 121.52561 210.97938 120.1612 206.93359 118.75391 C 205.43619 118.05847 204.31156 116.81383 203.14062 115.68945 C 200.05222 112.47202 197.27665 108.92876 195.12553 105.01318 C 192.62915 100.58831 190.26778 96.08955 187.87305 91.609375 C 186.12576 89.271667 184.15559 87.114117 182.25977 84.898438 C 181.36857 83.900895 179.97689 83.711433 178.75004 83.392606 C 177.61641 83.137164 176.49519 82.804022 175.34707 82.626047 C 174.29796 82.545753 173.30601 82.983695 172.29816 83.2021 C 166.18548 84.823161 160.13005 86.648721 154.06073 88.422865 C 146.99166 90.509775 139.92259 92.596684 132.85352 94.683594 C 130.17318 94.811198 127.49284 94.938802 124.8125 95.066406 C 115.68895 94.017 106.74825 91.520106 98.345861 87.824936 C 93.2139 85.582777 88.082801 83.338628 82.951172 81.095703 C 82.563151 81.10026 82.17513 81.104818 81.787109 81.109375 z " />
    <path
       id="path857"
       style="fill:#0000ff;fill-opacity:0.5;stroke:#000000;stroke-width:3;stroke-linecap:round;stroke-miterlimit:4;stroke-dasharray:none;stop-color:#000000"
       d="m 187.54492,67.554688 c -3.04728,0.0371 -6.08181,0.345924 -9.11914,0.566406 -3.40304,2.298938 -6.8852,4.89722 -11.07617,5.439453 -5.22234,0.861943 -10.62533,0.807584 -15.68555,2.511719 -5.42218,5.081013 -10.4109,10.595394 -15.64453,15.865234 -3.42994,1.880459 -7.24698,2.869593 -10.9731,3.978291 -7.58838,2.12565 -15.31408,3.70982 -22.93711,5.701909 -2.127391,0.55446 -4.310148,0.98109 -6.352423,1.80238 -2.262517,1.25876 -3.873095,3.48632 -4.663147,5.92367 0.848307,4.06445 1.696615,8.12891 2.544922,12.19336 -0.729167,5.8724 -1.458333,11.74479 -2.1875,17.61719 1.32973,3.25236 4.367476,5.39613 7.423638,6.88039 4.85551,2.01394 10.20035,2.07634 15.27386,3.20908 0.9498,0.10829 2.22912,0.0554 2.68918,1.09375 3.67124,5.44479 7.34247,10.88957 11.01371,16.33436 7.6596,5.56411 18.21823,6.67298 26.94532,3.08593 8.52148,-2.80013 17.04296,-5.60026 25.56445,-8.40039 6.32542,0.10746 12.35366,2.51068 17.80469,5.56446 7.53229,3.82152 15.08406,7.98492 23.46445,9.6032 6.18487,1.13786 12.50505,0.76377 18.74844,0.47883 4.85786,-2.13635 8.36361,-6.77074 9.56841,-11.88669 0.6992,-2.14324 1.3984,-4.28648 2.0976,-6.42972 6.12085,-1.78496 12.49473,-2.35791 18.75781,-3.43359 1.24089,-0.5625 2.48178,-1.125 3.72266,-1.6875 4.78362,-6.18487 9.44523,-12.53719 15.20117,-17.87305 2.2513,-2.49236 4.41107,-5.41134 4.68946,-8.87305 -0.0942,-5.41439 -2.56089,-10.55776 -6.0625,-14.59961 -2.75202,-3.81062 -5.83207,-7.62157 -6.94922,-12.291012 -0.65093,-4.671959 0.90288,-9.231423 1.84765,-13.748047 0.75537,-2.040515 0.14909,-4.691043 -1.83888,-5.796705 -2.53305,-1.815376 -5.71552,-2.20459 -8.66808,-2.923378 -6.17176,-1.25932 -12.50303,-2.151939 -18.30852,-4.72163 -2.58625,-0.979716 -5.17249,-1.959431 -7.75874,-2.939147 -6.35053,0.1197 -12.49431,2.687004 -18.88671,1.966797 -3.85003,-0.50922 -7.83489,-1.652626 -11.67695,-0.478361 -2.79237,0.805207 -5.27075,2.839877 -8.28788,2.732995 -3.36606,-0.359993 -6.14693,-2.482465 -9.22227,-3.699209 -3.46738,-1.581785 -7.19085,-2.921331 -11.059,-2.768315 z" />
    <rect
       style="fill:none;stroke:#000000;stroke-width:3;stroke-linecap:round;stroke-miterlimit:4;stroke-dasharray:none;stop-color:#000000"
       id="rect883"
       width="307.58691"
       height="153.60028"
       x="2.6252441"
       y="39.823105" />
    <path
       id="path885"
       style="fill:none;fill-opacity:0.5;stroke:#000000;stroke-width:3;stroke-linecap:round;stroke-miterlimit:4;stroke-dasharray:6, 6;stroke-dashoffset:0;stop-color:#000000"
       d="M 173.37695 101.97461 C 168.84164 103.66039 165.88544 108.75069 166.69531 113.52539 C 167.77637 120.64241 171.03957 127.20501 172.22266 134.29883 C 172.6486 138.28858 171.25606 142.14895 170.04633 145.88169 C 168.56915 150.6029 166.76074 155.33897 166.63326 160.34296 C 166.47294 163.59702 167.33535 166.90415 169.17663 169.60256 C 171.08676 172.41516 173.97771 174.66453 177.32031 175.44531 C 180.75084 176.19248 184.4831 175.33104 187.22894 173.13997 C 190.81471 170.53101 193.41472 166.87557 196.18786 163.47546 C 198.94486 159.98223 201.56827 156.33755 204.88281 153.33789 C 207.23601 151.61345 210.30555 151.49321 213.10547 151.72656 C 221.54892 152.4206 229.96034 153.96019 238.46094 153.59375 C 244.42727 153.19439 250.40317 151.07194 254.8758 147.02548 C 259.96037 142.16488 262.30081 134.77573 261.41797 127.84766 C 260.72364 122.66258 258.06383 117.70229 253.88346 114.50656 C 251.12844 112.36334 247.7712 111.05671 244.31555 110.62892 C 243.10845 110.33529 241.88876 110.6469 240.71792 110.94213 C 230.87998 113.16663 221.26601 116.35071 211.31884 118.09283 C 207.9921 118.58115 204.38913 118.70693 201.32631 117.09884 C 197.38744 115.10714 193.96916 112.27595 190.42156 109.68541 C 186.78862 106.96809 183.09843 104.16416 178.79757 102.59175 C 177.28337 102.08634 175.69066 101.83897 174.09766 101.7832 C 173.85742 101.84701 173.61719 101.91081 173.37695 101.97461 z " />
    <text
       xml:space="preserve"
       style="font-size:16px;line-height:0.4;font-family:'DejaVu Sans';-inkscape-font-specification:'DejaVu Sans, Normal';text-align:center;letter-spacing:0px;word-spacing:0px;writing-mode:lr-tb;text-anchor:middle"
       x="71.257339"
       y="58.133057"
       id="text890"><tspan
         sodipodi:role="line"
         id="tspan888"
         x="71.257339"
         y="58.133057"
         style="font-size:16px">Image Statistics</tspan></text>
    <g
       inkscape:label=""
       transform="matrix(1.37016,0,0,1.37016,-101.43262,22.852884)"
       id="g941"
       style="stroke-width:0.729842">
      <g
         id="g4408"
         style="stroke-width:0.729842">
        <g
           style="fill:#000000;fill-opacity:1;stroke-width:0.729842"
           id="g5997">
          <use
             xlink:href="#symbol7372"
             x="91.925003"
             y="81.962997"
             id="use6284"
             width="100%"
             height="100%"
             style="stroke-width:0.729842" />
        </g>
      </g>
    </g>
    <g
       inkscape:label=""
       transform="matrix(1.37016,0,0,1.37016,134.53255,-19.313127)"
       id="g1001"
       style="stroke-width:0.729842">
      <g
         id="g7375"
         style="stroke-width:0.729842">
        <g
           style="fill:#000000;fill-opacity:1;stroke-width:0.729842"
           id="g305">
          <use
             xlink:href="#symbol6589"
             x="91.925003"
             y="81.962997"
             id="use8378"
             width="100%"
             height="100%"
             style="stroke-width:0.729842" />
        </g>
        <g
           style="fill:#000000;fill-opacity:1;stroke-width:0.729842"
           id="g6412">
          <use
             xlink:href="#symbol3429"
             x="98.469002"
             y="83.457001"
             id="use2646"
             width="100%"
             height="100%"
             style="stroke-width:0.729842" />
        </g>
      </g>
    </g>
    <g
       inkscape:label=""
       transform="matrix(1.37016,0,0,1.37016,101.46921,15.920793)"
       id="g1080"
       style="stroke-width:0.729842">
      <g
         id="g5185"
         style="stroke-width:0.729842">
        <g
           style="fill:#000000;fill-opacity:1;stroke-width:0.729842"
           id="g3670">
          <use
             xlink:href="#symbol1798"
             x="91.925003"
             y="81.962997"
             id="use1314"
             width="100%"
             height="100%"
             style="stroke-width:0.729842" />
        </g>
        <g
           style="fill:#000000;fill-opacity:1;stroke-width:0.729842"
           id="g4674">
          <use
             xlink:href="#symbol3328"
             x="98.469002"
             y="83.457001"
             id="use6532"
             width="100%"
             height="100%"
             style="stroke-width:0.729842" />
        </g>
        <g
           style="fill:#000000;fill-opacity:1;stroke-width:0.729842"
           id="g3792">
          <use
             xlink:href="#symbol3804"
             x="101.288"
             y="83.457001"
             id="use8261"
             width="100%"
             height="100%"
             style="stroke-width:0.729842" />
          <use
             xlink:href="#symbol1849"
             x="107.40402"
             y="83.457001"
             id="use6023"
             width="100%"
             height="100%"
             style="stroke-width:0.729842" />
        </g>
      </g>
    </g>
  </g>
</svg>
